<svg width="400" height="400" viewBox="0 0 400 400" fill="none" xmlns="http://www.w3.org/2000/svg">
<rect width="400" height="400" fill="#E5E5E5"/>
<rect width="400" height="400" fill="white"/>
<path d="M0 0H400V400H0V0Z" fill="#009C74"/>
<path d="M280.875 91.125H235.667C235.667 71.1998 219.448 55 199.5 55C179.552 55 163.333 71.1998 163.333 91.125H118.125C103.15 91.125 91 103.261 91 118.219V316.906C91 331.864 103.15 344 118.125 344H280.875C295.85 344 308 331.864 308 316.906V118.219C308 103.261 295.85 91.125 280.875 91.125ZM199.5 77.5781C207.016 77.5781 213.063 83.6178 213.063 91.125C213.063 98.6322 207.016 104.672 199.5 104.672C191.984 104.672 185.938 98.6322 185.938 91.125C185.938 83.6178 191.984 77.5781 199.5 77.5781ZM280.875 313.52C280.875 315.382 279.349 316.906 277.484 316.906H121.516C119.651 316.906 118.125 315.382 118.125 313.52V121.605C118.125 119.743 119.651 118.219 121.516 118.219H145.25V138.539C145.25 142.264 148.302 145.312 152.031 145.312H246.969C250.698 145.312 253.75 142.264 253.75 138.539V118.219H277.484C279.349 118.219 280.875 119.743 280.875 121.605V313.52Z" fill="white"/>
<path d="M244.98 246.75C241.98 255.75 236.83 262.65 229.53 267.45C222.23 272.15 213.73 274.5 204.03 274.5C194.43 274.5 186.13 272.45 179.13 268.35C172.23 264.25 166.88 258.4 163.08 250.8C159.28 243.1 157.38 234 157.38 223.5C157.38 213 159.28 203.95 163.08 196.35C166.88 188.65 172.23 182.75 179.13 178.65C186.13 174.55 194.38 172.5 203.88 172.5C213.68 172.5 221.98 174.55 228.78 178.65C235.58 182.75 240.48 188.8 243.48 196.8L228.33 203.55C224.53 192.15 216.68 186.45 204.78 186.45C195.48 186.45 188.03 189.7 182.43 196.2C176.93 202.6 174.18 211.7 174.18 223.5C174.18 235.2 176.83 244.3 182.13 250.8C187.43 257.3 194.83 260.55 204.33 260.55C210.43 260.55 215.68 259 220.08 255.9C224.58 252.7 227.78 247.95 229.68 241.65L244.98 246.75Z" fill="white"/>
</svg>
